<?xml version="1.0" standalone="no"?>
<!DOCTYPE svg PUBLIC "-//W3C//DTD SVG 20010904//EN"
 "http://www.w3.org/TR/2001/REC-SVG-20010904/DTD/svg10.dtd">
<svg version="1.0" xmlns="http://www.w3.org/2000/svg"
 width="918.000000pt" height="1280.000000pt" viewBox="0 0 918.000000 1280.000000"
 preserveAspectRatio="xMidYMid meet">
<g transform="translate(0.000000,1280.000000) scale(0.100000,-0.100000)"
fill="#000000" stroke="none">
<path d="M6230 12779 c-258 -91 -548 -348 -739 -657 -54 -86 -142 -259 -186
-362 -113 -266 -212 -667 -235 -955 -22 -284 -80 -468 -295 -947 -133 -293
-200 -468 -224 -575 -31 -143 -79 -219 -166 -266 -63 -35 -187 -29 -415 17
-159 32 -199 37 -285 34 -90 -4 -117 -10 -268 -61 -537 -183 -1037 -426 -1842
-895 -341 -199 -670 -438 -879 -641 -296 -288 -422 -568 -401 -891 9 -145 36
-295 100 -564 73 -305 95 -427 101 -576 9 -184 -8 -268 -140 -705 -228 -754
-290 -1028 -336 -1470 -28 -277 -28 -276 16 -619 42 -327 128 -532 311 -739
175 -198 453 -373 814 -515 172 -67 676 -234 778 -257 125 -29 227 -75 348
-156 103 -70 173 -130 402 -347 290 -274 426 -372 608 -434 112 -39 202 -45
372 -24 299 37 750 40 1066 6 270 -29 622 -91 825 -146 52 -14 100 -26 105
-27 19 -3 188 55 270 92 45 21 172 93 283 160 111 67 239 140 285 161 177 83
327 105 523 75 155 -23 463 -17 634 14 448 79 771 290 940 612 68 131 194 478
269 739 139 489 233 1041 256 1500 11 221 35 602 45 710 13 135 13 253 0 360
-38 304 -58 402 -115 555 -19 50 -47 131 -64 181 -63 194 -160 344 -322 499
-148 143 -282 238 -659 470 -212 130 -341 218 -438 299 -134 111 -155 126
-177 126 -40 0 -198 50 -245 77 -148 87 -213 216 -227 447 -6 100 -9 113 -40
165 -54 89 -77 179 -77 296 1 159 37 274 188 593 149 315 191 436 203 587 4
55 17 108 40 170 47 123 116 356 212 710 138 506 219 750 329 985 89 190 136
383 151 610 34 530 -174 1021 -542 1281 -168 119 -467 240 -492 200 -16 -27
52 -69 187 -115 263 -90 489 -347 591 -671 111 -354 13 -680 -263 -873 -85
-60 -140 -112 -140 -134 0 -24 36 -40 165 -73 105 -26 177 -55 189 -74 3 -4
-93 -272 -214 -595 -310 -828 -408 -1120 -546 -1630 -60 -223 -68 -243 -98
-271 -147 -132 -252 -408 -296 -780 -16 -130 -16 -455 -1 -570 l12 -91 -104
-289 c-225 -626 -279 -826 -333 -1245 -13 -107 -34 -235 -46 -285 -48 -207
-148 -448 -318 -765 -141 -261 -270 -517 -305 -600 -14 -36 -77 -168 -140
-295 -256 -518 -365 -876 -382 -1255 -5 -115 -9 -140 -28 -170 -12 -19 -30
-60 -41 -90 -26 -76 -25 -290 4 -505 31 -236 35 -302 22 -379 -23 -142 -83
-223 -196 -266 -55 -21 -76 -22 -344 -25 -176 -1 -352 -9 -460 -19 -106 -11
-203 -15 -245 -11 -145 13 -306 85 -535 238 -188 126 -434 315 -459 352 -64
95 -198 178 -341 210 -41 9 -178 22 -305 30 -126 7 -261 20 -300 28 -38 9
-121 25 -183 36 -192 36 -401 125 -607 261 -125 83 -204 147 -323 264 -145
142 -187 199 -233 321 -87 232 -119 413 -119 683 0 239 33 483 101 757 54 214
168 597 221 744 84 234 154 476 274 954 173 692 238 913 350 1198 365 928 936
1478 1463 1412 97 -12 174 -38 406 -133 371 -152 564 -296 651 -485 84 -183
76 -323 -42 -800 -53 -213 -85 -385 -99 -530 -5 -51 -19 -96 -52 -170 -25 -55
-105 -247 -179 -426 -185 -456 -298 -694 -393 -833 -43 -63 -63 -106 -139
-307 -185 -483 -254 -737 -207 -755 79 -31 408 435 660 932 153 303 261 565
400 974 40 118 91 256 112 305 91 207 170 434 312 901 95 314 165 527 246 748
79 217 124 394 225 891 103 506 182 777 294 1010 34 72 144 276 243 455 286
515 412 771 530 1075 53 136 55 146 74 320 37 356 68 531 129 715 131 402 377
634 700 662 116 10 155 23 155 53 0 26 -60 58 -157 84 -94 25 -136 25 -208 0z
m-2337 -3874 c242 -51 388 -264 374 -545 -7 -127 -25 -196 -82 -316 -60 -128
-117 -208 -169 -239 -38 -22 -54 -25 -142 -25 -206 1 -362 56 -730 261 -286
158 -435 218 -604 243 -64 9 -86 16 -88 28 -5 26 124 149 205 197 98 58 217
108 441 187 250 87 353 126 437 164 71 33 177 58 250 59 22 0 70 -6 108 -14z
m-2243 -1001 c0 -3 -35 -43 -77 -88 -247 -262 -415 -550 -581 -996 -71 -191
-227 -654 -263 -779 -41 -147 -58 -191 -74 -191 -7 0 -45 34 -85 77 -82 88
-148 213 -174 330 -18 82 -21 238 -6 332 75 461 524 1025 993 1246 50 24 117
50 147 58 58 16 120 21 120 11z m5495 -1479 c234 -49 410 -170 546 -375 75
-112 113 -190 154 -313 123 -371 90 -812 -108 -1407 -323 -971 -423 -1225
-889 -2254 -318 -703 -361 -800 -417 -941 -97 -242 -174 -370 -295 -491 -111
-111 -201 -156 -323 -162 -144 -8 -264 33 -413 139 -85 60 -246 211 -265 249
-27 54 -71 348 -85 575 -45 728 173 1473 754 2567 226 427 284 572 499 1248
l141 445 -3 146 c-3 162 6 215 60 321 101 199 379 308 644 253z m1180 -719
c240 -112 567 -659 672 -1121 16 -70 18 -121 15 -420 -4 -489 -27 -781 -88
-1112 -114 -617 -289 -1091 -532 -1443 -87 -126 -254 -293 -355 -355 -96 -59
-230 -106 -317 -112 -93 -7 -471 22 -560 43 -94 21 -158 53 -197 98 -51 57
-51 93 1 247 24 74 72 222 106 329 222 697 430 1149 758 1650 102 156 142 234
191 374 150 426 177 937 75 1425 -28 134 -4 304 53 371 47 56 99 63 178 26z"/>
<path d="M6215 12338 c-98 -108 -175 -380 -175 -618 0 -138 18 -230 60 -309
32 -59 75 -109 85 -99 3 3 -2 49 -11 103 -13 77 -15 138 -11 289 6 219 28 344
97 546 22 66 40 121 40 124 0 3 -11 6 -24 6 -15 0 -37 -15 -61 -42z"/>
<path d="M6373 11177 c1 -5 50 -39 108 -74 97 -59 120 -68 318 -124 118 -33
219 -58 225 -56 22 8 -262 134 -468 208 -130 47 -189 62 -183 46z"/>
<path d="M6019 10266 c66 -71 496 -326 551 -326 45 0 -81 126 -217 217 -81 54
-223 111 -318 128 l-40 8 24 -27z"/>
<path d="M5938 9810 c-28 -17 -21 -36 30 -79 50 -44 225 -154 261 -166 19 -6
21 -3 21 30 0 48 -21 94 -61 132 -64 60 -209 108 -251 83z"/>
<path d="M4940 6650 c19 -17 105 -65 190 -108 85 -43 191 -97 235 -119 142
-73 160 -67 66 19 -68 63 -183 141 -255 173 -70 31 -195 65 -237 65 l-34 -1
35 -29z"/>
</g>
</svg>
